<svg width="84" height="87" viewBox="0 0 84 87" fill="none" xmlns="http://www.w3.org/2000/svg">
<path d="M87 1H10.4807L2 11.163H39.0068V35.3696L53.4626 31.6739V11.163H78.5193L87 1Z" fill="white"/>
<path d="M73.8934 16.5217H60.2086V35.3696L33.4172 43.1304V16.5217H10.4807L18.9615 25.5V74.913L33.4172 79.3478V74.913V57.7283L60.2086 49.2283V79.3478L73.8934 74.913V16.5217Z" fill="white"/>
<path d="M53.4626 82.6739V54.9565L39.0068 60.1304V82.6739L46.7166 86L53.4626 82.6739Z" fill="white"/>
<path d="M87 1H10.4807L2 11.163H39.0068V35.3696L53.4626 31.6739V11.163H78.5193L87 1Z" stroke="black"/>
<path d="M73.8934 16.5217H60.2086V35.3696L33.4172 43.1304V16.5217H10.4807L18.9615 25.5V74.913L33.4172 79.3478V74.913V57.7283L60.2086 49.2283V79.3478L73.8934 74.913V16.5217Z" stroke="black"/>
<path d="M53.4626 82.6739V54.9565L39.0068 60.1304V82.6739L46.7166 86L53.4626 82.6739Z" stroke="black"/>
</svg>
